ffmpeg version 4.1.6-1~deb10u1+rpt1 Copyright (c) 2000-2020 the FFmpeg developers
  built with gcc 8 (Raspbian 8.3.0-6+rpi1)
  configuration: --prefix=/usr --extra-version='1~deb10u1+rpt1' --toolchain=hardened --incdir=/usr/include/arm-linux-gnueabihf --enable-gpl --disable-stripping --enable-avresample --disable-filter=resample --enable-avisynth --enable-gnutls --enable-ladspa --enable-libaom --enable-libass --enable-libbluray --enable-libbs2b --enable-libcaca --enable-libcdio --enable-libcodec2 --enable-libflite --enable-libfontconfig --enable-libfreetype --enable-libfribidi --enable-libgme --enable-libgsm --enable-libjack --enable-libmp3lame --enable-libmysofa --enable-libopenjpeg --enable-libopenmpt --enable-libopus --enable-libpulse --enable-librsvg --enable-librubberband --enable-libshine --enable-libsnappy --enable-libsoxr --enable-libspeex --enable-libssh --enable-libtheora --enable-libtwolame --enable-libvidstab --enable-libvorbis --enable-libvpx --enable-libwavpack --enable-libwebp --enable-libx265 --enable-libxml2 --enable-libxvid --enable-libzmq --enable-libzvbi --enable-lv2 --enable-omx --enable-openal --enable-opengl --enable-sdl2 --enable-omx-rpi --enable-mmal --enable-neon --enable-rpi --enable-libdc1394 --enable-libdrm --enable-libiec61883 --enable-chromaprint --enable-frei0r --enable-libx264 --enable-shared --libdir=/usr/lib/arm-linux-gnueabihf --cpu=arm1176jzf-s --arch=arm
  WARNING: library configuration mismatch
  avutil      configuration: --prefix=/usr --extra-version='1~deb10u1+rpt1' --toolchain=hardened --incdir=/usr/include/arm-linux-gnueabihf --enable-gpl --disable-stripping --enable-avresample --disable-filter=resample --enable-avisynth --enable-gnutls --enable-ladspa --enable-libaom --enable-libass --enable-libbluray --enable-libbs2b --enable-libcaca --enable-libcdio --enable-libcodec2 --enable-libflite --enable-libfontconfig --enable-libfreetype --enable-libfribidi --enable-libgme --enable-libgsm --enable-libjack --enable-libmp3lame --enable-libmysofa --enable-libopenjpeg --enable-libopenmpt --enable-libopus --enable-libpulse --enable-librsvg --enable-librubberband --enable-libshine --enable-libsnappy --enable-libsoxr --enable-libspeex --enable-libssh --enable-libtheora --enable-libtwolame --enable-libvidstab --enable-libvorbis --enable-libvpx --enable-libwavpack --enable-libwebp --enable-libx265 --enable-libxml2 --enable-libxvid --enable-libzmq --enable-libzvbi --enable-lv2 --enable-omx --enable-openal --enable-opengl --enable-sdl2 --enable-omx-rpi --enable-mmal --enable-neon --enable-rpi --enable-libdc1394 --enable-libdrm --enable-libiec61883 --enable-chromaprint --enable-frei0r --enable-libx264 --libdir=/usr/lib/arm-linux-gnueabihf/neon/vfp --cpu=cortex-a7 --arch=armv6t2 --disable-thumb --enable-shared --disable-doc --disable-programs
  avcodec     configuration: --prefix=/usr --extra-version='1~deb10u1+rpt1' --toolchain=hardened --incdir=/usr/include/arm-linux-gnueabihf --enable-gpl --disable-stripping --enable-avresample --disable-filter=resample --enable-avisynth --enable-gnutls --enable-ladspa --enable-libaom --enable-libass --enable-libbluray --enable-libbs2b --enable-libcaca --enable-libcdio --enable-libcodec2 --enable-libflite --enable-libfontconfig --enable-libfreetype --enable-libfribidi --enable-libgme --enable-libgsm --enable-libjack --enable-libmp3lame --enable-libmysofa --enable-libopenjpeg --enable-libopenmpt --enable-libopus --enable-libpulse --enable-librsvg --enable-librubberband --enable-libshine --enable-libsnappy --enable-libsoxr --enable-libspeex --enable-libssh --enable-libtheora --enable-libtwolame --enable-libvidstab --enable-libvorbis --enable-libvpx --enable-libwavpack --enable-libwebp --enable-libx265 --enable-libxml2 --enable-libxvid --enable-libzmq --enable-libzvbi --enable-lv2 --enable-omx --enable-openal --enable-opengl --enable-sdl2 --enable-omx-rpi --enable-mmal --enable-neon --enable-rpi --enable-libdc1394 --enable-libdrm --enable-libiec61883 --enable-chromaprint --enable-frei0r --enable-libx264 --libdir=/usr/lib/arm-linux-gnueabihf/neon/vfp --cpu=cortex-a7 --arch=armv6t2 --disable-thumb --enable-shared --disable-doc --disable-programs
  avformat    configuration: --prefix=/usr --extra-version='1~deb10u1+rpt1' --toolchain=hardened --incdir=/usr/include/arm-linux-gnueabihf --enable-gpl --disable-stripping --enable-avresample --disable-filter=resample --enable-avisynth --enable-gnutls --enable-ladspa --enable-libaom --enable-libass --enable-libbluray --enable-libbs2b --enable-libcaca --enable-libcdio --enable-libcodec2 --enable-libflite --enable-libfontconfig --enable-libfreetype --enable-libfribidi --enable-libgme --enable-libgsm --enable-libjack --enable-libmp3lame --enable-libmysofa --enable-libopenjpeg --enable-libopenmpt --enable-libopus --enable-libpulse --enable-librsvg --enable-librubberband --enable-libshine --enable-libsnappy --enable-libsoxr --enable-libspeex --enable-libssh --enable-libtheora --enable-libtwolame --enable-libvidstab --enable-libvorbis --enable-libvpx --enable-libwavpack --enable-libwebp --enable-libx265 --enable-libxml2 --enable-libxvid --enable-libzmq --enable-libzvbi --enable-lv2 --enable-omx --enable-openal --enable-opengl --enable-sdl2 --enable-omx-rpi --enable-mmal --enable-neon --enable-rpi --enable-libdc1394 --enable-libdrm --enable-libiec61883 --enable-chromaprint --enable-frei0r --enable-libx264 --libdir=/usr/lib/arm-linux-gnueabihf/neon/vfp --cpu=cortex-a7 --arch=armv6t2 --disable-thumb --enable-shared --disable-doc --disable-programs
  avdevice    configuration: --prefix=/usr --extra-version='1~deb10u1+rpt1' --toolchain=hardened --incdir=/usr/include/arm-linux-gnueabihf --enable-gpl --disable-stripping --enable-avresample --disable-filter=resample --enable-avisynth --enable-gnutls --enable-ladspa --enable-libaom --enable-libass --enable-libbluray --enable-libbs2b --enable-libcaca --enable-libcdio --enable-libcodec2 --enable-libflite --enable-libfontconfig --enable-libfreetype --enable-libfribidi --enable-libgme --enable-libgsm --enable-libjack --enable-libmp3lame --enable-libmysofa --enable-libopenjpeg --enable-libopenmpt --enable-libopus --enable-libpulse --enable-librsvg --enable-librubberband --enable-libshine --enable-libsnappy --enable-libsoxr --enable-libspeex --enable-libssh --enable-libtheora --enable-libtwolame --enable-libvidstab --enable-libvorbis --enable-libvpx --enable-libwavpack --enable-libwebp --enable-libx265 --enable-libxml2 --enable-libxvid --enable-libzmq --enable-libzvbi --enable-lv2 --enable-omx --enable-openal --enable-opengl --enable-sdl2 --enable-omx-rpi --enable-mmal --enable-neon --enable-rpi --enable-libdc1394 --enable-libdrm --enable-libiec61883 --enable-chromaprint --enable-frei0r --enable-libx264 --libdir=/usr/lib/arm-linux-gnueabihf/neon/vfp --cpu=cortex-a7 --arch=armv6t2 --disable-thumb --enable-shared --disable-doc --disable-programs
  avfilter    configuration: --prefix=/usr --extra-version='1~deb10u1+rpt1' --toolchain=hardened --incdir=/usr/include/arm-linux-gnueabihf --enable-gpl --disable-stripping --enable-avresample --disable-filter=resample --enable-avisynth --enable-gnutls --enable-ladspa --enable-libaom --enable-libass --enable-libbluray --enable-libbs2b --enable-libcaca --enable-libcdio --enable-libcodec2 --enable-libflite --enable-libfontconfig --enable-libfreetype --enable-libfribidi --enable-libgme --enable-libgsm --enable-libjack --enable-libmp3lame --enable-libmysofa --enable-libopenjpeg --enable-libopenmpt --enable-libopus --enable-libpulse --enable-librsvg --enable-librubberband --enable-libshine --enable-libsnappy --enable-libsoxr --enable-libspeex --enable-libssh --enable-libtheora --enable-libtwolame --enable-libvidstab --enable-libvorbis --enable-libvpx --enable-libwavpack --enable-libwebp --enable-libx265 --enable-libxml2 --enable-libxvid --enable-libzmq --enable-libzvbi --enable-lv2 --enable-omx --enable-openal --enable-opengl --enable-sdl2 --enable-omx-rpi --enable-mmal --enable-neon --enable-rpi --enable-libdc1394 --enable-libdrm --enable-libiec61883 --enable-chromaprint --enable-frei0r --enable-libx264 --libdir=/usr/lib/arm-linux-gnueabihf/neon/vfp --cpu=cortex-a7 --arch=armv6t2 --disable-thumb --enable-shared --disable-doc --disable-programs
  avresample  configuration: --prefix=/usr --extra-version='1~deb10u1+rpt1' --toolchain=hardened --incdir=/usr/include/arm-linux-gnueabihf --enable-gpl --disable-stripping --enable-avresample --disable-filter=resample --enable-avisynth --enable-gnutls --enable-ladspa --enable-libaom --enable-libass --enable-libbluray --enable-libbs2b --enable-libcaca --enable-libcdio --enable-libcodec2 --enable-libflite --enable-libfontconfig --enable-libfreetype --enable-libfribidi --enable-libgme --enable-libgsm --enable-libjack --enable-libmp3lame --enable-libmysofa --enable-libopenjpeg --enable-libopenmpt --enable-libopus --enable-libpulse --enable-librsvg --enable-librubberband --enable-libshine --enable-libsnappy --enable-libsoxr --enable-libspeex --enable-libssh --enable-libtheora --enable-libtwolame --enable-libvidstab --enable-libvorbis --enable-libvpx --enable-libwavpack --enable-libwebp --enable-libx265 --enable-libxml2 --enable-libxvid --enable-libzmq --enable-libzvbi --enable-lv2 --enable-omx --enable-openal --enable-opengl --enable-sdl2 --enable-omx-rpi --enable-mmal --enable-neon --enable-rpi --enable-libdc1394 --enable-libdrm --enable-libiec61883 --enable-chromaprint --enable-frei0r --enable-libx264 --libdir=/usr/lib/arm-linux-gnueabihf/neon/vfp --cpu=cortex-a7 --arch=armv6t2 --disable-thumb --enable-shared --disable-doc --disable-programs
  swscale     configuration: --prefix=/usr --extra-version='1~deb10u1+rpt1' --toolchain=hardened --incdir=/usr/include/arm-linux-gnueabihf --enable-gpl --disable-stripping --enable-avresample --disable-filter=resample --enable-avisynth --enable-gnutls --enable-ladspa --enable-libaom --enable-libass --enable-libbluray --enable-libbs2b --enable-libcaca --enable-libcdio --enable-libcodec2 --enable-libflite --enable-libfontconfig --enable-libfreetype --enable-libfribidi --enable-libgme --enable-libgsm --enable-libjack --enable-libmp3lame --enable-libmysofa --enable-libopenjpeg --enable-libopenmpt --enable-libopus --enable-libpulse --enable-librsvg --enable-librubberband --enable-libshine --enable-libsnappy --enable-libsoxr --enable-libspeex --enable-libssh --enable-libtheora --enable-libtwolame --enable-libvidstab --enable-libvorbis --enable-libvpx --enable-libwavpack --enable-libwebp --enable-libx265 --enable-libxml2 --enable-libxvid --enable-libzmq --enable-libzvbi --enable-lv2 --enable-omx --enable-openal --enable-opengl --enable-sdl2 --enable-omx-rpi --enable-mmal --enable-neon --enable-rpi --enable-libdc1394 --enable-libdrm --enable-libiec61883 --enable-chromaprint --enable-frei0r --enable-libx264 --libdir=/usr/lib/arm-linux-gnueabihf/neon/vfp --cpu=cortex-a7 --arch=armv6t2 --disable-thumb --enable-shared --disable-doc --disable-programs
  swresample  configuration: --prefix=/usr --extra-version='1~deb10u1+rpt1' --toolchain=hardened --incdir=/usr/include/arm-linux-gnueabihf --enable-gpl --disable-stripping --enable-avresample --disable-filter=resample --enable-avisynth --enable-gnutls --enable-ladspa --enable-libaom --enable-libass --enable-libbluray --enable-libbs2b --enable-libcaca --enable-libcdio --enable-libcodec2 --enable-libflite --enable-libfontconfig --enable-libfreetype --enable-libfribidi --enable-libgme --enable-libgsm --enable-libjack --enable-libmp3lame --enable-libmysofa --enable-libopenjpeg --enable-libopenmpt --enable-libopus --enable-libpulse --enable-librsvg --enable-librubberband --enable-libshine --enable-libsnappy --enable-libsoxr --enable-libspeex --enable-libssh --enable-libtheora --enable-libtwolame --enable-libvidstab --enable-libvorbis --enable-libvpx --enable-libwavpack --enable-libwebp --enable-libx265 --enable-libxml2 --enable-libxvid --enable-libzmq --enable-libzvbi --enable-lv2 --enable-omx --enable-openal --enable-opengl --enable-sdl2 --enable-omx-rpi --enable-mmal --enable-neon --enable-rpi --enable-libdc1394 --enable-libdrm --enable-libiec61883 --enable-chromaprint --enable-frei0r --enable-libx264 --libdir=/usr/lib/arm-linux-gnueabihf/neon/vfp --cpu=cortex-a7 --arch=armv6t2 --disable-thumb --enable-shared --disable-doc --disable-programs
  postproc    configuration: --prefix=/usr --extra-version='1~deb10u1+rpt1' --toolchain=hardened --incdir=/usr/include/arm-linux-gnueabihf --enable-gpl --disable-stripping --enable-avresample --disable-filter=resample --enable-avisynth --enable-gnutls --enable-ladspa --enable-libaom --enable-libass --enable-libbluray --enable-libbs2b --enable-libcaca --enable-libcdio --enable-libcodec2 --enable-libflite --enable-libfontconfig --enable-libfreetype --enable-libfribidi --enable-libgme --enable-libgsm --enable-libjack --enable-libmp3lame --enable-libmysofa --enable-libopenjpeg --enable-libopenmpt --enable-libopus --enable-libpulse --enable-librsvg --enable-librubberband --enable-libshine --enable-libsnappy --enable-libsoxr --enable-libspeex --enable-libssh --enable-libtheora --enable-libtwolame --enable-libvidstab --enable-libvorbis --enable-libvpx --enable-libwavpack --enable-libwebp --enable-libx265 --enable-libxml2 --enable-libxvid --enable-libzmq --enable-libzvbi --enable-lv2 --enable-omx --enable-openal --enable-opengl --enable-sdl2 --enable-omx-rpi --enable-mmal --enable-neon --enable-rpi --enable-libdc1394 --enable-libdrm --enable-libiec61883 --enable-chromaprint --enable-frei0r --enable-libx264 --libdir=/usr/lib/arm-linux-gnueabihf/neon/vfp --cpu=cortex-a7 --arch=armv6t2 --disable-thumb --enable-shared --disable-doc --disable-programs
  libavutil      56. 22.100 / 56. 22.100
  libavcodec     58. 35.100 / 58. 35.100
  libavformat    58. 20.100 / 58. 20.100
  libavdevice    58.  5.100 / 58.  5.100
  libavfilter     7. 40.101 /  7. 40.101
  libavresample   4.  0.  0 /  4.  0.  0
  libswscale      5.  3.100 /  5.  3.100
  libswresample   3.  3.100 /  3.  3.100
  libpostproc    55.  3.100 / 55.  3.100
Input #0, lavfi, from 'anullsrc':
  Duration: N/A, start: 0.000000, bitrate: 705 kb/s
    Stream #0:0: Audio: pcm_u8, 44100 Hz, stereo, u8, 705 kb/s
Input #1, x11grab, from ':0.0':
  Duration: N/A, start: 1598184931.391512, bitrate: N/A
    Stream #1:0: Video: rawvideo (BGR[0] / 0x524742), bgr0, 720x480, 30 fps, 32 tbr, 1000k tbn, 1000k tbc
Stream mapping:
  Stream #1:0 -> #0:0 (rawvideo (native) -> flv1 (flv))
  Stream #0:0 -> #0:1 (pcm_u8 (native) -> mp3 (libmp3lame))
Press [q] to stop, [?] for help
Output #0, flv, to 'rtmp://a.rtmp.youtube.com/live2/628y-jagt-7b5c-4c9b':
  Metadata:
    encoder         : Lavf58.20.100
    Stream #0:0: Video: flv1 (flv) ([2][0][0][0] / 0x0002), yuv420p(progressive), 854x480, q=2-31, 1024 kb/s, 32 fps, 1k tbn, 32 tbc
    Metadata:
      encoder         : Lavc58.35.100 flv
    Side data:
      cpb: bitrate max/min/avg: 0/0/1024000 buffer size: 0 vbv_delay: -1
    Stream #0:1: Audio: mp3 (libmp3lame) ([2][0][0][0] / 0x0002), 44100 Hz, stereo, s16p
    Metadata:
      encoder         : Lavc58.35.100 libmp3lame
[x11grab @ 0x5732a0] Thread message queue blocking; consider raising the thread_queue_size option (current value: 8)
frame=   10 fps=0.0 q=2.0 size=     101kB time=00:00:00.57 bitrate=1437.8kbits/s dup=0 drop=2 speed= 1.1x    frame=   21 fps= 20 q=2.0 size=     220kB time=00:00:01.04 bitrate=1725.8kbits/s dup=0 drop=2 speed=1.01x    frame=   33 fps= 21 q=2.0 size=     337kB time=00:00:01.56 bitrate=1760.1kbits/s dup=0 drop=2 speed=1.02x    frame=   46 fps= 22 q=2.0 size=     449kB time=00:00:02.09 bitrate=1759.3kbits/s dup=0 drop=2 speed=1.01x    frame=   59 fps= 23 q=2.4 size=     566kB time=00:00:02.61 bitrate=1773.7kbits/s dup=0 drop=2 speed=   1x    frame=   72 fps= 23 q=2.7 size=     677kB time=00:00:03.16 bitrate=1754.1kbits/s dup=0 drop=2 speed=1.01x    frame=   85 fps= 23 q=1.9 size=     767kB time=00:00:03.65 bitrate=1717.5kbits/s dup=0 drop=2 speed=   1x    frame=   98 fps= 24 q=3.6 size=     929kB time=00:00:04.18 bitrate=1816.2kbits/s dup=0 drop=2 speed=1.01x    frame=  112 fps= 24 q=4.0 size=    1016kB time=00:00:04.72 bitrate=1759.6kbits/s dup=0 drop=2 speed=1.01x    frame=  125 fps= 24 q=4.1 size=    1090kB time=00:00:05.25 bitrate=1700.9kbits/s dup=0 drop=2 speed=1.01x    frame=  139 fps= 24 q=3.0 size=    1168kB time=00:00:05.75 bitrate=1664.4kbits/s dup=0 drop=2 speed=   1x    frame=  153 fps= 24 q=3.0 size=    1245kB time=00:00:06.29 bitrate=1619.7kbits/s dup=0 drop=2 speed=1.01x    frame=  167 fps= 25 q=7.2 size=    1359kB time=00:00:06.81 bitrate=1633.4kbits/s dup=0 drop=2 speed=1.01x    frame=  181 fps= 25 q=4.1 size=    1437kB time=00:00:07.31 bitrate=1609.0kbits/s dup=0 drop=2 speed=1.01x    frame=  195 fps= 25 q=13.5 size=    1556kB time=00:00:07.83 bitrate=1626.6kbits/s dup=0 drop=2 speed=1.01x    frame=  209 fps= 25 q=10.3 size=    1618kB time=00:00:08.33 bitrate=1590.3kbits/s dup=0 drop=2 speed=1.01x    frame=  223 fps= 25 q=10.9 size=    1686kB time=00:00:08.85 bitrate=1559.9kbits/s dup=0 drop=2 speed=1.01x    frame=  237 fps= 26 q=9.4 size=    1754kB time=00:00:09.35 bitrate=1536.2kbits/s dup=0 drop=2 speed=1.01x    frame=  251 fps= 26 q=9.6 size=    1822kB time=00:00:09.87 bitrate=1511.7kbits/s dup=0 drop=2 speed=1.01x    frame=  265 fps= 26 q=5.1 size=    1883kB time=00:00:10.34 bitrate=1490.7kbits/s dup=0 drop=2 speed=   1x    frame=  279 fps= 26 q=15.2 size=    1986kB time=00:00:10.86 bitrate=1496.9kbits/s dup=0 drop=2 speed=1.01x    frame=  293 fps= 26 q=10.3 size=    2043kB time=00:00:11.39 bitrate=1469.6kbits/s dup=0 drop=2 speed=1.01x    frame=  307 fps= 26 q=11.3 size=    2121kB time=00:00:11.88 bitrate=1461.6kbits/s dup=0 drop=2 speed=1.01x    frame=  321 fps= 26 q=10.9 size=    2188kB time=00:00:12.40 bitrate=1444.7kbits/s dup=0 drop=2 speed=1.01x    frame=  335 fps= 26 q=8.9 size=    2246kB time=00:00:12.90 bitrate=1425.5kbits/s dup=0 drop=2 speed=1.01x    frame=  349 fps= 26 q=5.9 size=    2308kB time=00:00:13.40 bitrate=1410.3kbits/s dup=0 drop=2 speed=   1x    frame=  363 fps= 26 q=14.3 size=    2411kB time=00:00:13.95 bitrate=1415.5kbits/s dup=0 drop=2 speed=1.01x    frame=  377 fps= 26 q=8.8 size=    2469kB time=00:00:14.44 bitrate=1399.8kbits/s dup=0 drop=2 speed=1.01x    frame=  391 fps= 26 q=12.7 size=    2539kB time=00:00:14.94 bitrate=1391.9kbits/s dup=0 drop=2 speed=   1x    frame=  405 fps= 26 q=22.9 size=    2609kB time=00:00:15.43 bitrate=1384.3kbits/s dup=0 drop=2 speed=   1x    frame=  419 fps= 26 q=31.0 size=    2670kB time=00:00:15.96 bitrate=1370.2kbits/s dup=0 drop=2 speed=   1x    frame=  433 fps= 26 q=24.8 size=    2748kB time=00:00:16.51 bitrate=1363.6kbits/s dup=0 drop=2 speed=   1x    frame=  447 fps= 26 q=18.1 size=    2803kB time=00:00:17.00 bitrate=1350.0kbits/s dup=0 drop=2 speed=   1x    frame=  461 fps= 26 q=8.4 size=    2863kB time=00:00:17.52 bitrate=1338.2kbits/s dup=0 drop=2 speed=   1x    frame=  475 fps= 26 q=10.2 size=    2921kB time=00:00:18.07 bitrate=1323.6kbits/s dup=0 drop=2 speed=   1x    frame=  489 fps= 26 q=11.0 size=    2982kB time=00:00:18.60 bitrate=1313.6kbits/s dup=0 drop=2 speed=   1x    frame=  503 fps= 26 q=10.5 size=    3046kB time=00:00:19.12 bitrate=1304.7kbits/s dup=0 drop=2 speed=   1x    frame=  517 fps= 26 q=9.3 size=    3104kB time=00:00:19.62 bitrate=1295.6kbits/s dup=0 drop=2 speed=   1x    frame=  531 fps= 26 q=7.5 size=    3208kB time=00:00:20.16 bitrate=1303.0kbits/s dup=0 drop=2 speed=   1x    frame=  543 fps= 26 q=6.7 size=    3276kB time=00:00:20.63 bitrate=1300.4kbits/s dup=0 drop=2 speed=   1x    frame=  554 fps= 26 q=4.8 size=    3362kB time=00:00:21.10 bitrate=1304.9kbits/s dup=0 drop=2 speed=   1x    frame=  566 fps= 26 q=7.8 size=    3422kB time=00:00:21.63 bitrate=1296.1kbits/s dup=0 drop=2 speed=   1x    frame=  579 fps= 26 q=6.2 size=    3500kB time=00:00:22.17 bitrate=1292.6kbits/s dup=0 drop=2 speed=   1x    frame=  592 fps= 26 q=4.5 size=    3560kB time=00:00:22.72 bitrate=1283.4kbits/s dup=0 drop=2 speed=   1x    frame=  603 fps= 26 q=6.0 size=    3617kB time=00:00:23.17 bitrate=1278.8kbits/s dup=0 drop=2 speed=0.999x    frame=  617 fps= 26 q=6.3 size=    3692kB time=00:00:23.77 bitrate=1272.4kbits/s dup=0 drop=2 speed=   1x    frame=  631 fps= 26 q=5.2 size=    3779kB time=00:00:24.32 bitrate=1272.7kbits/s dup=0 drop=2 speed=   1x    frame=  645 fps= 26 q=8.5 size=    3839kB time=00:00:24.81 bitrate=1267.3kbits/s dup=0 drop=2 speed=   1x    frame=  659 fps= 26 q=9.5 size=    3911kB time=00:00:25.34 bitrate=1264.2kbits/s dup=0 drop=2 speed=   1x    frame=  673 fps= 26 q=3.3 size=    3969kB time=00:00:25.88 bitrate=1256.0kbits/s dup=0 drop=2 speed=   1x    frame=  686 fps= 26 q=6.3 size=    4093kB time=00:00:26.38 bitrate=1270.9kbits/s dup=0 drop=2 speed=   1x    frame=  700 fps= 26 q=6.9 size=    4162kB time=00:00:26.93 bitrate=1265.8kbits/s dup=0 drop=2 speed=   1x    frame=  714 fps= 26 q=4.1 size=    4230kB time=00:00:27.43 bitrate=1263.2kbits/s dup=0 drop=2 speed=   1x    frame=  728 fps= 26 q=8.6 size=    4331kB time=00:00:27.97 bitrate=1268.1kbits/s dup=0 drop=2 speed=   1x    frame=  742 fps= 26 q=6.8 size=    4405kB time=00:00:28.50 bitrate=1266.1kbits/s dup=0 drop=2 speed=   1x    frame=  756 fps= 26 q=6.6 size=    4484kB time=00:00:28.99 bitrate=1266.9kbits/s dup=0 drop=2 speed=   1x    frame=  770 fps= 26 q=9.1 size=    4579kB time=00:00:29.50 bitrate=1271.6kbits/s dup=0 drop=2 speed=   1x    frame=  784 fps= 26 q=6.3 size=    4641kB time=00:00:30.04 bitrate=1265.5kbits/s dup=0 drop=2 speed=   1x    frame=  796 fps= 26 q=9.9 size=    4717kB time=00:00:30.46 bitrate=1268.5kbits/s dup=0 drop=2 speed=0.999x    frame=  809 fps= 26 q=7.9 size=    4775kB time=00:00:31.03 bitrate=1260.4kbits/s dup=0 drop=2 speed=   1x    frame=  822 fps= 26 q=9.8 size=    4830kB time=00:00:31.53 bitrate=1254.9kbits/s dup=0 drop=2 speed=   1x    frame=  835 fps= 26 q=7.6 size=    4887kB time=00:00:32.03 bitrate=1249.7kbits/s dup=0 drop=2 speed=   1x    frame=  849 fps= 26 q=4.2 size=    4954kB time=00:00:32.62 bitrate=1243.8kbits/s dup=0 drop=2 speed=   1x    frame=  863 fps= 26 q=5.8 size=    5021kB time=00:00:33.12 bitrate=1241.8kbits/s dup=0 drop=2 speed=   1x    frame=  876 fps= 26 q=6.5 size=    5093kB time=00:00:33.62 bitrate=1241.0kbits/s dup=0 drop=2 speed=   1x    frame=  890 fps= 26 q=6.0 size=    5198kB time=00:00:34.16 bitrate=1246.3kbits/s dup=0 drop=2 speed=   1x    frame=  900 fps= 26 q=4.9 size=    5225kB time=00:00:34.56 bitrate=1238.6kbits/s dup=0 drop=2 speed=0.997x    frame=  912 fps= 26 q=7.2 size=    5328kB time=00:00:35.22 bitrate=1239.2kbits/s dup=0 drop=2 speed=   1x    frame=  925 fps= 26 q=4.1 size=    5438kB time=00:00:35.76 bitrate=1245.6kbits/s dup=0 drop=2 speed=   1x    frame=  938 fps= 26 q=5.2 size=    5536kB time=00:00:36.25 bitrate=1250.7kbits/s dup=0 drop=2 speed=   1x    frame=  952 fps= 26 q=5.1 size=    5596kB time=00:00:36.80 bitrate=1245.4kbits/s dup=0 drop=2 speed=   1x    frame=  966 fps= 26 q=13.2 size=    5689kB time=00:00:37.35 bitrate=1247.5kbits/s dup=0 drop=2 speed=   1x    frame=  980 fps= 26 q=19.8 size=    5746kB time=00:00:37.87 bitrate=1242.7kbits/s dup=0 drop=2 speed=   1x    frame=  994 fps= 26 q=8.6 size=    5791kB time=00:00:38.37 bitrate=1236.2kbits/s dup=0 drop=2 speed=0.999x    frame= 1006 fps= 26 q=8.2 size=    5840kB time=00:00:38.90 bitrate=1229.6kbits/s dup=0 drop=2 speed=   1x    frame= 1020 fps= 26 q=5.8 size=    5909kB time=00:00:39.49 bitrate=1225.6kbits/s dup=0 drop=2 speed=   1x    frame= 1033 fps= 26 q=6.5 size=    6027kB time=00:00:40.02 bitrate=1233.7kbits/s dup=0 drop=2 speed=   1x    frame= 1047 fps= 26 q=5.2 size=    6089kB time=00:00:40.49 bitrate=1231.8kbits/s dup=0 drop=2 speed=   1x    frame= 1060 fps= 26 q=7.8 size=    6190kB time=00:00:41.01 bitrate=1236.5kbits/s dup=0 drop=2 speed=   1x    frame= 1071 fps= 26 q=9.4 size=    6255kB time=00:00:41.43 bitrate=1236.6kbits/s dup=0 drop=2 speed=0.998x    frame= 1083 fps= 26 q=5.3 size=    6319kB time=00:00:42.00 bitrate=1232.4kbits/s dup=0 drop=2 speed=0.999x    frame= 1096 fps= 26 q=7.0 size=    6398kB time=00:00:42.60 bitrate=1230.2kbits/s dup=0 drop=2 speed=   1x    frame= 1109 fps= 26 q=7.7 size=    6462kB time=00:00:43.10 bitrate=1228.1kbits/s dup=0 drop=2 speed=   1x    frame= 1122 fps= 26 q=7.8 size=    6536kB time=00:00:43.57 bitrate=1228.9kbits/s dup=0 drop=2 speed=   1x    frame= 1133 fps= 26 q=6.5 size=    6599kB time=00:00:44.07 bitrate=1226.6kbits/s dup=0 drop=2 speed=   1x    frame= 1146 fps= 26 q=5.2 size=    6674kB time=00:00:44.62 bitrate=1225.2kbits/s dup=0 drop=2 speed=   1x    frame= 1160 fps= 26 q=3.3 size=    6732kB time=00:00:45.16 bitrate=1220.9kbits/s dup=0 drop=2 speed=   1x    frame= 1173 fps= 26 q=5.6 size=    6796kB time=00:00:45.66 bitrate=1219.2kbits/s dup=0 drop=2 speed=   1x    frame= 1187 fps= 26 q=4.4 size=    6857kB time=00:00:46.18 bitrate=1216.3kbits/s dup=0 drop=2 speed=   1x    frame= 1201 fps= 26 q=2.6 size=    6922kB time=00:00:46.70 bitrate=1214.0kbits/s dup=0 drop=2 speed=   1x    frame= 1214 fps= 26 q=3.8 size=    7060kB time=00:00:47.17 bitrate=1225.9kbits/s dup=0 drop=2 speed=   1x    frame= 1229 fps= 26 q=4.4 size=    7140kB time=00:00:47.72 bitrate=1225.6kbits/s dup=0 drop=2 speed=   1x    frame= 1242 fps= 26 q=5.1 size=    7226kB time=00:00:48.24 bitrate=1226.8kbits/s dup=0 drop=2 speed=   1x    frame= 1257 fps= 26 q=5.2 size=    7289kB time=00:00:48.77 bitrate=1224.2kbits/s dup=0 drop=2 speed=   1x    frame= 1271 fps= 26 q=4.2 size=    7350kB time=00:00:49.25 bitrate=1222.6kbits/s dup=0 drop=2 speed=   1x    frame= 1285 fps= 26 q=3.3 size=    7455kB time=00:00:49.79 bitrate=1226.5kbits/s dup=0 drop=2 speed=   1x    frame= 1298 fps= 26 q=4.8 size=    7508kB time=00:00:50.26 bitrate=1223.8kbits/s dup=0 drop=2 speed=   1x    frame= 1312 fps= 26 q=4.3 size=    7566kB time=00:00:50.81 bitrate=1219.7kbits/s dup=0 drop=2 speed=   1x    frame= 1326 fps= 26 q=4.8 size=    7627kB time=00:00:51.35 bitrate=1216.5kbits/s dup=0 drop=2 speed=   1x    frame= 1340 fps= 26 q=3.2 size=    7707kB time=00:00:51.88 bitrate=1217.0kbits/s dup=0 drop=2 speed=   1x    frame= 1354 fps= 26 q=3.3 size=    7770kB time=00:00:52.35 bitrate=1215.9kbits/s dup=0 drop=2 speed=   1x    frame= 1368 fps= 26 q=4.2 size=    7837kB time=00:00:52.89 bitrate=1213.6kbits/s dup=0 drop=2 speed=   1x    frame= 1382 fps= 26 q=4.5 size=    7949kB time=00:00:53.39 bitrate=1219.6kbits/s dup=0 drop=2 speed=   1x    frame= 1396 fps= 26 q=4.3 size=    8007kB time=00:00:53.94 bitrate=1215.9kbits/s dup=0 drop=2 speed=   1x    frame= 1408 fps= 26 q=4.8 size=    8071kB time=00:00:54.38 bitrate=1215.6kbits/s dup=0 drop=2 speed=   1x    frame= 1422 fps= 26 q=3.9 size=    8153kB time=00:00:54.97 bitrate=1215.0kbits/s dup=0 drop=2 speed=   1x    frame= 1436 fps= 26 q=4.2 size=    8206kB time=00:00:55.48 bitrate=1211.6kbits/s dup=0 drop=2 speed=   1x    frame= 1450 fps= 26 q=4.8 size=    8278kB time=00:00:56.03 bitrate=1210.2kbits/s dup=0 drop=2 speed=   1x    frame= 1464 fps= 26 q=4.6 size=    8343kB time=00:00:56.53 bitrate=1209.0kbits/s dup=0 drop=2 speed=   1x    frame= 1478 fps= 26 q=4.4 size=    8448kB time=00:00:57.06 bitrate=1212.8kbits/s dup=0 drop=2 speed=   1x    frame= 1492 fps= 26 q=3.6 size=    8519kB time=00:00:57.57 bitrate=1212.2kbits/s dup=0 drop=2 speed=   1x    frame= 1505 fps= 26 q=3.2 size=    8606kB time=00:00:58.09 bitrate=1213.5kbits/s dup=0 drop=2 speed=   1x    frame= 1517 fps= 26 q=4.4 size=    8691kB time=00:00:58.56 bitrate=1215.6kbits/s dup=0 drop=2 speed=   1x    frame= 1528 fps= 26 q=6.4 size=    8757kB time=00:00:59.03 bitrate=1215.2kbits/s dup=0 drop=2 speed=0.999x    frame= 1541 fps= 26 q=4.9 size=    8816kB time=00:00:59.63 bitrate=1211.0kbits/s dup=0 drop=2 speed=   1x    frame= 1554 fps= 26 q=4.3 size=    8881kB time=00:01:00.16 bitrate=1209.3kbits/s dup=0 drop=2 speed=   1x    [flv @ 0x57c940] Failed to update header with correct duration.
[flv @ 0x57c940] Failed to update header with correct filesize.
frame= 1563 fps= 26 q=4.6 Lsize=    8952kB time=00:01:00.57 bitrate=1210.6kbits/s dup=0 drop=2 speed=   1x    
video:7944kB audio:947kB subtitle:0kB other streams:0kB global headers:0kB muxing overhead: 0.685921%
